<?xml version="1.0" encoding="utf-8"?>
<!-- Generator: Adobe Illustrator 16.0.0, SVG Export Plug-In . SVG Version: 6.00 Build 0)  -->
<!DOCTYPE svg PUBLIC "-//W3C//DTD SVG 1.1//EN" "http://www.w3.org/Graphics/SVG/1.1/DTD/svg11.dtd">
<svg version="1.1" id="Layer_1" xmlns="http://www.w3.org/2000/svg" xmlns:xlink="http://www.w3.org/1999/xlink" x="0px" y="0px"
	 width="841.89px" height="595.28px" viewBox="0 0 841.89 595.28" enable-background="new 0 0 841.89 595.28" xml:space="preserve">
<g>
	<path fill="#F15A29" d="M60.471,183.658c167.844-51.031,271.512-14.477,294.316,41.239c19.258,47.051-17.367,86.956-94.743,127.905
		c-5.93,3.132-2.719,1.724-8.875,5.506c90.872-11.678,177.439-91.777,144.458-154.152
		C342.089,102.863,139.788,134.828,60.471,183.658L60.471,183.658z"/>
	<path fill="#F15A29" d="M158.642,366.303C0.963,370.164,46.345,232.324,209.126,238.19
		C61.062,262.256,46.06,348.113,158.642,366.303L158.642,366.303z"/>
	<path fill="#F15A29" d="M161.075,313.7c1.733-14.323,15.18-32.118,34.004-51.474c11.919,67.683,65.25,46.977,77.485-15.5
		c16.982,1.847,26.094,16.691,29.847,40.441c-39.668,12.864-66.846,67.151-88.961,138.282
		C210.298,362.672,202.378,308.396,161.075,313.7L161.075,313.7z"/>
	<path fill="#F15A29" d="M250.902,240.938c11.299,5.128,13.495,21.598,4.916,36.792c-8.58,15.189-24.695,23.356-35.994,18.234
		c-11.279-5.118-13.485-21.598-4.906-36.793C223.498,243.987,239.614,235.816,250.902,240.938L250.902,240.938z"/>
</g>
<g>
	<path fill="#F15A29" d="M430.712,177.48c-0.513-1.545-0.416-2.96,0.29-4.249c0.706-1.285,1.671-2.251,2.896-2.896
		c1.222-0.643,2.511-0.869,3.862-0.676s2.348,0.999,2.993,2.414c0.387,1.032,1.256,3.639,2.607,7.821
		c1.352,4.186,2.897,9.173,4.635,14.967c1.738,5.794,3.54,11.91,5.408,18.347c1.864,6.439,3.603,12.36,5.214,17.768
		c1.608,5.407,3.443,11.653,5.504,18.732c2.188-6.952,4.119-13.065,5.794-18.347c1.672-5.277,3.506-11.104,5.504-17.478
		c1.994-6.373,3.926-12.456,5.794-18.25c1.864-5.794,3.476-10.941,4.828-15.449c1.352-4.506,2.284-7.532,2.8-9.077
		c0.643-2.317,1.608-3.862,2.896-4.635c1.286-0.772,2.478-0.869,3.573-0.29c1.093,0.579,1.994,1.675,2.704,3.283
		c0.706,1.611,0.803,3.573,0.289,5.891c-0.386,1.545-1.385,4.701-2.993,9.463c-1.611,4.765-3.51,10.332-5.697,16.705
		c-2.19,6.373-4.571,13.035-7.146,19.988c-2.577,6.952-4.895,13.392-6.952,19.313c-2.062,5.923-3.799,10.881-5.215,14.87
		c-1.418,3.992-2.061,6.18-1.931,6.566c0.127,0.516,0.223,2.351,0.289,5.504c0.063,3.156,0.16,6.6,0.29,10.332
		c0.127,3.735,0.224,7.309,0.29,10.718c0.063,3.413,0.097,5.697,0.097,6.856c0,1.158-0.483,2.157-1.449,2.993
		c-0.965,0.839-2.027,1.352-3.187,1.545c-1.158,0.193-2.254-0.063-3.283-0.772c-1.031-0.706-1.611-2.091-1.737-4.152
		c-0.13-2.058-0.193-4.795-0.193-8.207c0-3.41,0-6.79,0-10.14c0-3.346,0.03-6.34,0.097-8.979c0.063-2.638,0.097-4.152,0.097-4.539
		c0-0.256-0.676-2.414-2.028-6.47c-1.352-4.056-3.026-9.106-5.021-15.16c-1.998-6.05-4.219-12.616-6.663-19.698
		c-2.447-7.079-4.731-13.742-6.856-19.988c-2.124-6.243-3.959-11.65-5.504-16.223C432.063,181.313,431.099,178.513,430.712,177.48z"
		/>
	<path fill="#F15A29" d="M578.257,283.505c0.257-2.704,0.643-6.47,1.159-11.298c0.513-4.828,1.188-11.424,2.027-19.795
		c0.836-8.367,1.769-18.893,2.801-31.575c1.028-12.68,2.124-28.293,3.282-46.833c0.127-0.386,0.74-0.772,1.835-1.158
		c1.093-0.387,2.251-0.643,3.477-0.772c1.222-0.127,2.348-0.063,3.38,0.193c1.028,0.259,1.608,0.772,1.737,1.545
		c0.257,1.545,0.16,4.025-0.289,7.435c-0.453,3.413-0.806,6.923-1.063,10.525c-0.13,0.902-0.356,2.993-0.676,6.276
		c-0.323,3.283-0.742,7.309-1.255,12.07c-0.517,4.765-1.129,10.108-1.835,16.029c-0.709,5.924-1.418,11.91-2.125,17.96
		c-0.709,6.054-1.385,12.007-2.027,17.864c-0.646,5.86-1.226,11.138-1.738,15.836c-0.516,4.701-0.966,8.594-1.352,11.685
		c-0.387,3.09-0.646,4.957-0.772,5.601c-0.26,1.545-1.032,2.64-2.317,3.282c-1.289,0.646-2.737,0.936-4.346,0.869
		c-1.611-0.063-3.123-0.386-4.538-0.965c-1.418-0.58-2.317-1.319-2.704-2.222c-0.646-1.931-1.545-4.828-2.703-8.69
		c-1.159-3.862-2.447-8.208-3.862-13.035c-1.419-4.828-2.834-9.88-4.249-15.16c-1.418-5.278-2.801-10.267-4.152-14.968
		c-1.352-4.698-2.544-8.851-3.572-12.456c-1.032-3.603-1.805-6.18-2.318-7.725c-0.386-1.159-0.742-1.835-1.062-2.028
		c-0.323-0.193-0.579-0.16-0.772,0.097c-0.193,0.26-0.42,0.839-0.676,1.738c-0.517,1.418-1.322,3.896-2.414,7.436
		c-1.096,3.542-2.351,7.598-3.767,12.166c-1.418,4.572-2.866,9.463-4.345,14.678c-1.481,5.214-2.931,10.235-4.346,15.063
		c-1.418,4.828-2.703,9.206-3.862,13.133c-1.158,3.929-2.061,6.855-2.704,8.787c-0.646,2.19-1.737,3.669-3.282,4.441
		s-3.157,1.032-4.828,0.772c-1.675-0.257-3.156-0.933-4.442-2.027c-1.288-1.093-2.061-2.414-2.317-3.96
		c-0.13-0.513-0.355-2.96-0.676-7.338c-0.323-4.376-0.709-9.816-1.159-16.319c-0.452-6.5-0.935-13.549-1.448-21.146
		c-0.516-7.596-0.966-14.838-1.352-21.727c-0.387-6.886-0.772-12.97-1.159-18.25c-0.386-5.278-0.579-8.817-0.579-10.622
		c-0.13-5.407-0.386-9.912-0.772-13.519c-0.386-3.603-0.646-6.243-0.772-7.918c0-0.772,0.482-1.642,1.448-2.607
		s2.028-1.608,3.187-1.931c1.159-0.32,2.221-0.097,3.187,0.676s1.382,2.447,1.256,5.021l6.373,105.252
		c0.256,0.259,0.643,0.646,1.158,1.158c0.514,0.516,0.966,0,1.353-1.545c0.643-2.188,1.641-5.567,2.993-10.139
		c1.352-4.568,2.8-9.59,4.345-15.063c1.545-5.471,3.187-11.135,4.925-16.995c1.738-5.857,3.38-11.201,4.925-16.029
		s2.896-8.851,4.056-12.07c1.158-3.217,2.058-4.955,2.704-5.214c1.158-0.643,2.67-0.899,4.538-0.772
		c1.864,0.13,3.187,0.709,3.959,1.738c0.257,0.386,0.899,2.221,1.931,5.504c1.029,3.283,2.252,7.404,3.67,12.359
		c1.415,4.958,2.96,10.365,4.635,16.223c1.672,5.859,3.283,11.523,4.828,16.994c1.545,5.475,2.96,10.365,4.249,14.678
		c1.285,4.315,2.317,7.372,3.09,9.174c0.256,0.259,0.609,0.549,1.062,0.868C577.645,285.083,577.997,284.664,578.257,283.505z"/>
	<path fill="#F15A29" d="M641.406,170.528c0.772,0,1.575,0.097,2.414,0.289c0.836,0.193,1.608,0.613,2.317,1.256
		c0.706,0.646,1.318,1.611,1.834,2.896c0.514,1.289,0.773,3.09,0.773,5.407c0,1.159,0.319,3.543,0.965,7.146
		c0.643,3.606,1.479,7.951,2.511,13.036c1.029,5.088,2.221,10.719,3.573,16.898c1.352,6.18,2.733,12.426,4.151,18.732
		c1.416,6.31,2.831,12.457,4.249,18.443c1.415,5.987,2.671,11.331,3.766,16.029c1.093,4.701,1.962,8.563,2.607,11.588
		c0.643,3.026,1.029,4.731,1.159,5.117c0.126,0.772,0.289,1.578,0.482,2.414c0.193,0.839,0.224,1.675,0.097,2.511
		c-0.13,0.839-0.387,1.642-0.772,2.414c-0.387,0.772-1.096,1.352-2.124,1.738c-1.032,0.386-1.998,0.419-2.897,0.097
		c-0.902-0.32-1.738-0.869-2.511-1.642s-1.448-1.672-2.027-2.704c-0.579-1.029-0.999-2.058-1.255-3.09
		c-0.13-0.387-0.323-1.382-0.58-2.993c-0.26-1.608-0.579-3.604-0.966-5.987c-0.386-2.381-0.839-5.117-1.352-8.207
		c-0.516-3.091-1.032-6.244-1.545-9.464c0-0.126-0.579-0.192-1.738-0.192c-1.158,0-2.64,0.033-4.441,0.097
		c-1.805,0.066-3.862,0.226-6.18,0.482c-2.318,0.26-4.636,0.452-6.953,0.579c-4.895,0.387-9.303,0.772-13.229,1.159
		c-3.929,0.386-5.957,0.902-6.083,1.545c-1.546,6.18-2.704,10.718-3.477,13.615c-0.772,2.896-1.226,4.475-1.352,4.731
		c-0.387,1.158-0.936,2.736-1.642,4.731c-0.71,1.997-1.578,3.896-2.607,5.697c-1.032,1.805-2.221,3.283-3.573,4.441
		c-1.352,1.159-2.8,1.545-4.345,1.159c-1.032-0.257-1.675-0.996-1.932-2.221c-0.256-1.223-0.223-2.801,0.097-4.732
		c0.32-1.931,0.836-4.055,1.545-6.373c0.706-2.317,1.575-4.698,2.607-7.146c0.513-1.158,1.672-4.375,3.477-9.655
		c1.801-5.278,3.926-11.521,6.373-18.733c2.443-7.209,5.021-14.87,7.725-22.981c2.703-8.111,5.244-15.673,7.628-22.692
		c2.381-7.016,4.346-12.969,5.891-17.863c1.545-4.892,2.444-7.659,2.704-8.305c0.643-2.058,1.222-4.119,1.737-6.18
		C639.022,171.56,639.987,170.528,641.406,170.528z M621.321,253.957c-0.26,0.387,0.063,0.676,0.966,0.869
		c0.899,0.193,2.124,0.26,3.669,0.193c1.545-0.063,3.347-0.16,5.407-0.29c2.059-0.127,4.183-0.319,6.373-0.579
		c4.506-0.387,8.432-0.739,11.781-1.063c3.346-0.319,4.891-0.739,4.635-1.255c-1.159-6.566-2.351-13.036-3.573-19.409
		c-1.225-6.373-2.414-12.07-3.572-17.091c-1.159-5.021-2.255-9.107-3.283-12.264c-1.032-3.153-1.868-4.731-2.511-4.731
		c-0.772,0-1.901,1.738-3.38,5.214c-1.481,3.477-3.156,7.888-5.021,13.229c-1.867,5.344-3.799,11.298-5.793,17.863
		C625.021,241.211,623.123,247.65,621.321,253.957z"/>
	<path fill="#F15A29" d="M697.602,189.647c-0.259,2.703-0.646,6.406-1.158,11.104c-0.517,4.701-1.129,11.171-1.835,19.408
		c-0.709,8.241-1.578,18.606-2.607,31.093c-1.031,12.49-2.124,28.003-3.282,46.543c-0.26,0.387-0.902,0.772-1.932,1.159
		c-1.032,0.386-2.157,0.646-3.38,0.772c-1.225,0.13-2.351,0.066-3.38-0.193c-1.031-0.257-1.611-0.772-1.737-1.545
		c-0.26-1.545-0.163-4.022,0.289-7.436c0.45-3.409,0.803-6.919,1.063-10.525c0.127-0.898,0.353-2.993,0.676-6.276
		c0.32-3.283,0.739-7.306,1.255-12.07c0.514-4.762,1.126-10.105,1.835-16.028c0.706-5.921,1.415-11.908,2.124-17.961
		c0.707-6.05,1.383-12.004,2.028-17.864c0.643-5.856,1.222-11.135,1.738-15.836c0.513-4.698,0.966-8.594,1.352-11.684
		c0.387-3.09,0.643-4.955,0.772-5.601c0.127-1.545,0.869-2.638,2.221-3.283c1.353-0.643,2.831-0.933,4.442-0.869
		c1.608,0.066,3.12,0.387,4.538,0.966c1.415,0.579,2.317,1.321,2.704,2.221c0.772,1.932,1.705,4.828,2.8,8.69
		c1.093,3.862,2.348,8.208,3.766,13.036c1.416,4.828,2.831,9.883,4.249,15.16c1.415,5.28,2.801,10.269,4.152,14.967
		c1.352,4.701,2.541,8.854,3.572,12.457c1.029,3.605,1.802,6.18,2.318,7.725c0.386,1.158,0.739,1.835,1.062,2.027
		c0.32,0.193,0.579,0.163,0.772-0.097c0.193-0.256,0.417-0.836,0.676-1.737c0.514-1.416,1.319-3.893,2.414-7.436
		c1.093-3.54,2.348-7.596,3.767-12.167c1.415-4.568,2.863-9.463,4.345-14.677c1.479-5.215,2.927-10.236,4.346-15.064
		c1.415-4.827,2.703-9.173,3.862-13.035c1.158-3.862,2.058-6.823,2.703-8.884c0.644-2.058,1.738-3.507,3.283-4.346
		c1.545-0.836,3.153-1.125,4.828-0.869c1.672,0.26,3.153,0.936,4.442,2.028c1.285,1.096,2.058,2.414,2.317,3.959
		c0,0.516,0.193,2.963,0.579,7.339c0.387,4.378,0.772,9.819,1.159,16.318c0.386,6.503,0.836,13.552,1.352,21.147
		c0.513,7.598,1.029,14.84,1.545,21.727c0.513,6.889,0.899,12.972,1.159,18.25c0.256,5.28,0.449,8.82,0.579,10.621
		c0.127,5.408,0.386,9.916,0.772,13.519c0.386,3.606,0.643,6.247,0.772,7.918c0,0.773-0.482,1.642-1.448,2.607
		s-2.028,1.611-3.187,1.932c-1.159,0.322-2.221,0.097-3.187-0.676s-1.386-2.444-1.256-5.021l-5.986-103.9
		c-0.26-0.256-0.646-0.643-1.159-1.158c-0.516-0.514-0.966,0-1.352,1.545c-0.646,2.317-1.642,5.697-2.993,10.139
		c-1.353,4.441-2.834,9.366-4.442,14.773c-1.611,5.408-3.283,10.945-5.021,16.609c-1.738,5.667-3.38,10.881-4.925,15.643
		c-1.545,4.765-2.964,8.724-4.249,11.877c-1.288,3.156-2.19,4.861-2.704,5.118c-1.158,0.646-2.673,0.902-4.538,0.772
		c-1.868-0.127-3.187-0.706-3.959-1.738c-0.26-0.387-0.902-2.188-1.931-5.407c-1.032-3.217-2.288-7.272-3.767-12.167
		c-1.481-4.892-3.06-10.202-4.731-15.933c-1.675-5.728-3.316-11.265-4.925-16.608c-1.611-5.341-3.06-10.139-4.345-14.388
		c-1.289-4.249-2.317-7.272-3.09-9.077c-0.26-0.256-0.613-0.546-1.063-0.869C698.212,188.072,697.858,188.488,697.602,189.647z"/>
</g>
<g>
	<path fill="#F15A29" d="M511.832,316.923c0.74,0.413,1.274,0.906,1.604,1.48c0.327,0.577,0.451,1.153,0.37,1.728
		c-0.083,0.576-0.352,1.091-0.803,1.542c-0.453,0.453-1.172,0.762-2.159,0.926c-0.986,0.166-2.017,0.166-3.084,0
		c-1.07-0.164-2.181-0.287-3.332-0.37c-1.152-0.081-2.304-0.02-3.454,0.186c-1.153,0.206-2.221,0.721-3.208,1.542
		c-2.058,1.728-3.702,4.257-4.936,7.588c-1.234,3.331-2.098,7.033-2.591,11.104c-0.494,4.072-0.7,8.371-0.617,12.894
		c0.081,4.525,0.432,8.822,1.049,12.894c0.617,4.072,1.419,7.733,2.406,10.981c0.986,3.25,2.138,5.697,3.454,7.342
		c1.234,1.563,2.693,2.387,4.381,2.467c1.685,0.083,3.371-0.08,5.059-0.493c1.685-0.41,3.208-0.863,4.564-1.357
		c1.357-0.493,2.364-0.534,3.023-0.123c1.233,0.906,2.098,1.811,2.591,2.715c0.494,0.905-0.042,1.851-1.604,2.837
		c-0.823,0.494-2.058,1.03-3.702,1.604c-1.646,0.576-3.497,0.987-5.552,1.233c-2.058,0.247-4.176,0.207-6.354-0.123
		c-2.181-0.328-4.176-1.191-5.984-2.591c-1.81-1.397-3.373-3.825-4.688-7.28c-1.316-3.454-2.344-7.464-3.084-12.029
		c-0.741-4.565-1.193-9.439-1.357-14.621c-0.166-5.183,0-10.18,0.493-14.991c0.493-4.813,1.314-9.212,2.468-13.202
		c1.151-3.989,2.672-7.095,4.565-9.315c2.138-2.468,4.318-4.134,6.539-4.997s4.276-1.296,6.169-1.296
		c1.892,0,3.536,0.228,4.936,0.679C510.392,316.327,511.339,316.676,511.832,316.923z"/>
	<path fill="#F15A29" d="M521.332,315.319c0.657-0.575,2.302-0.966,4.936-1.173c2.631-0.204,5.469-0.266,8.514-0.185
		c3.042,0.083,5.817,0.247,8.328,0.493c2.508,0.247,3.968,0.494,4.38,0.74c0.247,0.166,0.493,0.433,0.74,0.803
		s0.432,0.782,0.556,1.233c0.123,0.453,0.123,0.885,0,1.296c-0.124,0.412-0.475,0.699-1.049,0.863
		c-0.577,0.166-1.77,0.289-3.578,0.37c-1.811,0.083-3.744,0.166-5.799,0.247c-2.058,0.083-4.011,0.228-5.861,0.432
		c-1.851,0.206-3.105,0.475-3.763,0.802c-0.413,0.247-0.783,1.502-1.111,3.764c-0.329,2.263-0.616,5.018-0.863,8.267
		c-0.247,3.25-0.412,6.745-0.493,10.487c-0.083,3.744-0.124,7.239-0.124,10.488c0,3.25,0.081,5.983,0.247,8.205
		c0.164,2.221,0.411,3.414,0.74,3.578c0.493,0.246,1.768,0.289,3.825,0.123c2.055-0.164,4.275-0.37,6.662-0.617
		c2.385-0.247,4.585-0.39,6.602-0.432c2.015-0.04,3.187,0.228,3.517,0.802c0.657,0.987,0.863,2.078,0.616,3.27
		c-0.246,1.193-0.822,1.996-1.727,2.406c-0.494,0.166-1.708,0.206-3.641,0.123c-1.934-0.08-3.99-0.143-6.169-0.185
		c-2.181-0.041-4.195,0.021-6.046,0.185c-1.851,0.166-2.899,0.536-3.146,1.111c-0.246,0.659-0.432,1.77-0.555,3.331
		c-0.123,1.563-0.145,3.188-0.062,4.874c0.081,1.687,0.266,3.229,0.555,4.626c0.287,1.4,0.679,2.222,1.173,2.468
		c0.493,0.247,1.891,0.433,4.194,0.556c2.302,0.123,4.77,0.247,7.403,0.37c2.632,0.123,5.059,0.289,7.279,0.493
		c2.222,0.207,3.578,0.475,4.072,0.803c0.493,0.412,0.863,0.925,1.11,1.542s0.39,1.233,0.432,1.851
		c0.041,0.617-0.042,1.193-0.247,1.728c-0.206,0.536-0.515,0.885-0.925,1.049c-0.33,0.083-1.193,0.185-2.591,0.309
		c-1.4,0.123-3.085,0.228-5.06,0.309c-1.974,0.082-4.093,0.145-6.354,0.185c-2.264,0.043-4.401,0.043-6.416,0
		c-2.017-0.04-3.764-0.123-5.244-0.247c-1.48-0.123-2.427-0.308-2.838-0.555c-0.329-0.164-0.638-1.438-0.926-3.825
		c-0.289-2.385-0.555-5.448-0.802-9.192c-0.246-3.741-0.493-7.978-0.74-12.708c-0.247-4.729-0.432-9.563-0.555-14.498
		c-0.124-4.936-0.228-9.787-0.309-14.559c-0.083-4.77-0.083-9.069,0-12.895c0.081-3.824,0.204-6.949,0.37-9.377
		C520.756,317.027,521.002,315.648,521.332,315.319z"/>
	<path fill="#F15A29" d="M558.84,317.293c-0.082-0.74,0.041-1.314,0.371-1.728c0.327-0.41,0.759-0.719,1.295-0.925
		c0.534-0.205,1.11-0.35,1.728-0.432c0.617-0.081,1.253-0.205,1.912-0.371c0.411-0.08,1.46-0.143,3.146-0.185
		c1.686-0.04,3.681,0.166,5.984,0.617c2.302,0.453,4.75,1.255,7.341,2.405c2.592,1.153,4.936,2.819,7.033,4.997
		c2.098,2.181,3.804,5.019,5.12,8.514c1.315,3.497,1.892,7.835,1.728,13.018c-0.246,5.758-1.008,10.529-2.282,14.313
		c-1.276,3.784-2.899,6.869-4.874,9.254c-1.974,2.387-4.176,4.176-6.601,5.367c-2.428,1.193-4.833,2.035-7.218,2.529
		c-0.577,0.166-0.783,0.309-0.617,0.432c0.164,0.123,0.37,0.309,0.617,0.556c1.974,1.81,4.01,3.64,6.107,5.49
		s4.029,3.517,5.799,4.997c1.768,1.48,3.289,2.735,4.565,3.763c1.274,1.03,2.076,1.666,2.405,1.913
		c0.575,0.412,0.843,1.049,0.803,1.912c-0.043,0.864-0.269,1.687-0.679,2.468c-0.413,0.782-0.987,1.399-1.728,1.851
		s-1.48,0.513-2.221,0.186c-0.494-0.166-1.604-1.049-3.332-2.653c-1.727-1.604-3.701-3.517-5.922-5.737s-4.525-4.544-6.91-6.971
		c-2.387-2.426-4.483-4.504-6.292-6.231c-0.413-0.41-0.7-0.574-0.864-0.493c-0.165,0.083-0.289,0.166-0.37,0.247
		c-0.246,0.246-0.412,1.295-0.493,3.146c-0.083,1.852-0.166,3.887-0.247,6.107c-0.083,2.222-0.165,4.319-0.246,6.293
		c-0.083,1.975-0.247,3.208-0.494,3.701c-0.412,1.07-1.152,1.709-2.221,1.913c-1.07,0.206-1.811-0.143-2.221-1.049
		c-0.247-0.494-0.432-1.521-0.556-3.085c-0.123-1.562-0.206-3.905-0.246-7.032c-0.043-3.126-0.021-7.114,0.062-11.969
		c0.081-4.853,0.204-10.815,0.37-17.891c0.081-4.441,0.164-8.822,0.246-13.141c0.081-4.318,0.124-8.286,0.124-11.906
		c0-3.619,0-6.703,0-9.254C558.964,319.68,558.921,318.033,558.84,317.293z M563.899,323.216c0,0.246,0.019,1.461,0.062,3.64
		c0.04,2.181,0.081,4.854,0.123,8.02c0.041,3.168,0.081,6.561,0.124,10.18c0.04,3.62,0.102,6.992,0.185,10.117
		c0.081,3.127,0.143,5.759,0.186,7.896c0.04,2.141,0.062,3.291,0.062,3.455c0,0.247,0.019,0.576,0.062,0.987
		c0.04,0.412,0.123,0.782,0.247,1.11c0.123,0.329,0.349,0.617,0.678,0.863c0.328,0.247,0.821,0.33,1.481,0.247
		c0.41-0.081,1.253-0.186,2.529-0.309c1.274-0.123,2.714-0.432,4.318-0.926c1.604-0.493,3.31-1.273,5.12-2.344
		c1.809-1.068,3.455-2.529,4.936-4.38c1.48-1.852,2.715-4.174,3.701-6.972c0.987-2.795,1.521-6.25,1.604-10.364
		c0-4.029-0.453-7.422-1.357-10.179c-0.906-2.755-2.119-4.977-3.64-6.663c-1.523-1.685-3.168-2.961-4.936-3.825
		c-1.77-0.863-3.497-1.48-5.183-1.851c-1.687-0.37-3.207-0.555-4.564-0.555s-2.283,0-2.776,0c-1.646,0-2.551,0.145-2.715,0.432
		C563.98,322.086,563.899,322.559,563.899,323.216z"/>
	<path fill="#F15A29" d="M599.062,317.293c-0.082-0.74,0.041-1.314,0.371-1.728c0.327-0.41,0.759-0.719,1.295-0.925
		c0.534-0.205,1.11-0.35,1.728-0.432c0.617-0.081,1.253-0.205,1.912-0.371c0.411-0.08,1.46-0.143,3.146-0.185
		c1.686-0.04,3.681,0.166,5.984,0.617c2.302,0.453,4.75,1.255,7.341,2.405c2.592,1.153,4.936,2.819,7.033,4.997
		c2.098,2.181,3.804,5.019,5.12,8.514c1.315,3.497,1.892,7.835,1.728,13.018c-0.246,5.758-1.008,10.529-2.282,14.313
		c-1.276,3.784-2.899,6.869-4.874,9.254c-1.974,2.387-4.176,4.176-6.601,5.367c-2.428,1.193-4.833,2.035-7.218,2.529
		c-0.577,0.166-0.783,0.309-0.617,0.432c0.164,0.123,0.37,0.309,0.617,0.556c1.974,1.81,4.01,3.64,6.107,5.49
		s4.029,3.517,5.799,4.997c1.768,1.48,3.289,2.735,4.565,3.763c1.274,1.03,2.076,1.666,2.405,1.913
		c0.575,0.412,0.843,1.049,0.803,1.912c-0.043,0.864-0.269,1.687-0.679,2.468c-0.413,0.782-0.987,1.399-1.728,1.851
		s-1.48,0.513-2.221,0.186c-0.494-0.166-1.604-1.049-3.332-2.653c-1.727-1.604-3.701-3.517-5.922-5.737s-4.525-4.544-6.91-6.971
		c-2.387-2.426-4.483-4.504-6.292-6.231c-0.413-0.41-0.7-0.574-0.864-0.493c-0.165,0.083-0.289,0.166-0.37,0.247
		c-0.246,0.246-0.412,1.295-0.493,3.146c-0.083,1.852-0.166,3.887-0.247,6.107c-0.083,2.222-0.165,4.319-0.246,6.293
		c-0.083,1.975-0.247,3.208-0.494,3.701c-0.412,1.07-1.152,1.709-2.221,1.913c-1.07,0.206-1.811-0.143-2.221-1.049
		c-0.247-0.494-0.432-1.521-0.556-3.085c-0.123-1.562-0.206-3.905-0.246-7.032c-0.043-3.126-0.021-7.114,0.062-11.969
		c0.081-4.853,0.204-10.815,0.37-17.891c0.081-4.441,0.164-8.822,0.246-13.141c0.081-4.318,0.124-8.286,0.124-11.906
		c0-3.619,0-6.703,0-9.254C599.186,319.68,599.143,318.033,599.062,317.293z M604.121,323.216c0,0.246,0.019,1.461,0.062,3.64
		c0.04,2.181,0.081,4.854,0.123,8.02c0.041,3.168,0.081,6.561,0.124,10.18c0.04,3.62,0.102,6.992,0.185,10.117
		c0.081,3.127,0.143,5.759,0.186,7.896c0.04,2.141,0.062,3.291,0.062,3.455c0,0.247,0.019,0.576,0.062,0.987
		c0.04,0.412,0.123,0.782,0.247,1.11c0.123,0.329,0.349,0.617,0.678,0.863c0.328,0.247,0.821,0.33,1.481,0.247
		c0.41-0.081,1.253-0.186,2.529-0.309c1.274-0.123,2.714-0.432,4.318-0.926c1.604-0.493,3.31-1.273,5.12-2.344
		c1.809-1.068,3.455-2.529,4.936-4.38c1.48-1.852,2.715-4.174,3.701-6.972c0.987-2.795,1.521-6.25,1.604-10.364
		c0-4.029-0.453-7.422-1.357-10.179c-0.906-2.755-2.119-4.977-3.64-6.663c-1.523-1.685-3.168-2.961-4.936-3.825
		c-1.77-0.863-3.497-1.48-5.183-1.851c-1.687-0.37-3.207-0.555-4.564-0.555s-2.283,0-2.776,0c-1.646,0-2.551,0.145-2.715,0.432
		C604.202,322.086,604.121,322.559,604.121,323.216z"/>
	<path fill="#F15A29" d="M664.824,314.579c0.493,0,1.006,0.062,1.542,0.185c0.534,0.123,1.028,0.392,1.48,0.802
		c0.451,0.413,0.843,1.03,1.173,1.852c0.327,0.822,0.493,1.974,0.493,3.454c0,0.74,0.204,2.264,0.617,4.565
		c0.41,2.304,0.944,5.08,1.604,8.328c0.657,3.251,1.419,6.848,2.283,10.796c0.863,3.949,1.746,7.939,2.652,11.969
		c0.904,4.031,1.809,7.958,2.715,11.783c0.904,3.825,1.706,7.239,2.405,10.241c0.698,3.003,1.254,5.471,1.666,7.402
		c0.411,1.934,0.657,3.023,0.74,3.27c0.081,0.494,0.186,1.009,0.309,1.543c0.123,0.536,0.143,1.069,0.062,1.604
		c-0.083,0.536-0.246,1.049-0.493,1.543c-0.247,0.493-0.7,0.863-1.357,1.11c-0.659,0.246-1.276,0.268-1.851,0.062
		c-0.576-0.204-1.11-0.556-1.604-1.049c-0.493-0.493-0.925-1.068-1.295-1.728c-0.37-0.657-0.639-1.314-0.803-1.974
		c-0.082-0.247-0.206-0.884-0.37-1.913c-0.165-1.027-0.37-2.302-0.616-3.824c-0.247-1.521-0.536-3.271-0.864-5.244
		c-0.329-1.975-0.659-3.989-0.986-6.046c0-0.081-0.37-0.123-1.111-0.123c-0.74,0-1.687,0.021-2.837,0.062
		c-1.153,0.042-2.468,0.145-3.949,0.309c-1.48,0.165-2.961,0.289-4.441,0.37c-3.127,0.246-5.943,0.493-8.452,0.74
		c-2.51,0.246-3.806,0.576-3.887,0.987c-0.986,3.948-1.727,6.848-2.221,8.698c-0.493,1.851-0.782,2.859-0.863,3.022
		c-0.247,0.74-0.598,1.749-1.049,3.023c-0.453,1.276-1.009,2.488-1.666,3.64c-0.659,1.152-1.419,2.098-2.282,2.838
		c-0.864,0.74-1.789,0.987-2.776,0.74c-0.659-0.164-1.07-0.637-1.233-1.419c-0.164-0.781-0.143-1.789,0.062-3.022
		c0.204-1.234,0.534-2.592,0.987-4.072c0.451-1.48,1.006-3.002,1.665-4.565c0.328-0.74,1.068-2.795,2.221-6.169
		c1.151-3.372,2.509-7.36,4.072-11.968c1.562-4.606,3.208-9.501,4.936-14.683c1.728-5.183,3.351-10.014,4.873-14.498
		c1.521-4.482,2.776-8.286,3.764-11.413c0.987-3.125,1.562-4.893,1.728-5.306c0.41-1.314,0.78-2.632,1.11-3.948
		C663.301,315.238,663.918,314.579,664.824,314.579z M651.992,367.881c-0.166,0.246,0.041,0.432,0.617,0.555
		c0.574,0.124,1.357,0.166,2.344,0.124c0.987-0.041,2.139-0.103,3.455-0.186c1.314-0.081,2.672-0.204,4.071-0.37
		c2.879-0.247,5.387-0.473,7.526-0.679c2.139-0.204,3.126-0.472,2.962-0.802c-0.74-4.195-1.502-8.328-2.283-12.4
		c-0.782-4.071-1.542-7.711-2.282-10.919s-1.44-5.818-2.098-7.835c-0.659-2.015-1.193-3.023-1.604-3.023
		c-0.494,0-1.215,1.11-2.159,3.332c-0.947,2.221-2.017,5.039-3.208,8.451c-1.193,3.414-2.428,7.218-3.702,11.413
		C654.355,359.737,653.144,363.852,651.992,367.881z"/>
	<path fill="#F15A29" d="M690.363,321.118c-0.166-2.221,0.185-3.659,1.049-4.318c0.863-0.657,1.87-0.987,3.022-0.987
		c1.151,0,2.838,0.268,5.06,0.802c2.221,0.536,5.346,1.749,9.377,3.64c3.782,1.728,6.867,4.238,9.254,7.527
		c2.385,3.29,4.174,6.992,5.367,11.104c1.191,4.113,1.87,8.473,2.035,13.078c0.164,4.607-0.104,9.111-0.802,13.511
		c-0.699,4.401-1.77,8.494-3.208,12.276c-1.44,3.785-3.105,6.952-4.997,9.501c-1.811,2.387-3.948,4.257-6.416,5.614
		c-2.468,1.356-4.895,2.405-7.279,3.146c-2.387,0.741-4.546,1.193-6.478,1.357c-1.934,0.166-3.189,0.207-3.764,0.124
		c-1.233-0.164-2.263-0.473-3.084-0.926c-0.823-0.451-1.276-1.459-1.357-3.022c0-0.328,0.062-2.24,0.185-5.737
		c0.124-3.496,0.267-7.814,0.432-12.956c0.164-5.14,0.35-10.673,0.556-16.595c0.204-5.923,0.39-11.516,0.556-16.78
		c0.163-5.264,0.308-9.788,0.432-13.572C690.425,324.122,690.444,321.858,690.363,321.118z M697.396,324.079
		c-0.247,0.166-0.515,1.872-0.803,5.12c-0.289,3.251-0.535,7.261-0.74,12.03c-0.206,4.771-0.412,9.913-0.616,15.423
		c-0.207,5.512-0.33,10.673-0.37,15.485c-0.043,4.812-0.043,8.884,0,12.215c0.04,3.331,0.185,5.163,0.432,5.49
		c0.327,0.494,1.027,0.74,2.098,0.74c1.067,0,2.344-0.226,3.824-0.679c1.481-0.451,3.023-1.15,4.627-2.097
		c1.604-0.945,3.146-2.117,4.627-3.517c2.385-2.222,4.338-5.491,5.861-9.81c1.521-4.318,2.486-8.965,2.899-13.942
		c0.41-4.976,0.143-9.994-0.802-15.053c-0.947-5.059-2.695-9.52-5.244-13.387c-1.153-1.728-2.551-3.188-4.195-4.381
		c-1.646-1.191-3.27-2.098-4.874-2.714c-1.604-0.617-3.022-0.987-4.256-1.11C698.63,323.771,697.807,323.832,697.396,324.079z"/>
	<path fill="#F15A29" d="M771.549,388.979c-1.811,2.714-4.38,4.688-7.712,5.922c-3.331,1.234-6.767,1.913-10.302,2.036
		c-3.538,0.123-6.849-0.204-9.933-0.987c-3.085-0.78-5.286-1.829-6.602-3.146c-1.48-1.562-2.674-4.318-3.578-8.267
		c-0.906-3.948-1.522-8.451-1.851-13.51c-0.33-5.06-0.412-10.384-0.247-15.979c0.164-5.593,0.534-10.815,1.11-15.67
		c0.575-4.853,1.315-9.048,2.222-12.585c0.904-3.536,1.974-5.799,3.208-6.786c1.728-1.397,4.01-2.509,6.848-3.332
		c2.838-0.821,5.86-1.295,9.068-1.419c3.208-0.123,6.354,0.146,9.439,0.803c3.084,0.659,5.737,1.81,7.958,3.454
		c0.821,0.577,1.623,2.366,2.406,5.367c0.78,3.004,1.459,6.663,2.035,10.981c0.575,4.318,0.987,9.05,1.234,14.189
		c0.246,5.142,0.266,10.2,0.062,15.176c-0.206,4.979-0.74,9.563-1.604,13.758C774.448,383.181,773.193,386.512,771.549,388.979z
		 M742.8,324.819c-1.152,1.399-2.118,3.806-2.899,7.218c-0.782,3.415-1.399,7.322-1.851,11.722
		c-0.453,4.401-0.699,9.028-0.74,13.881c-0.042,4.854,0.081,9.398,0.37,13.634c0.287,4.237,0.76,7.896,1.419,10.981
		c0.657,3.085,1.521,5.039,2.591,5.86c1.398,1.153,3.289,1.955,5.676,2.406c2.385,0.453,4.853,0.536,7.403,0.247
		c2.549-0.287,4.976-0.926,7.279-1.913c2.302-0.986,4.112-2.344,5.43-4.071c0.74-0.987,1.376-3.042,1.912-6.169
		c0.534-3.125,0.944-6.786,1.233-10.981c0.288-4.195,0.433-8.656,0.433-13.387c0-4.729-0.166-9.171-0.494-13.326
		c-0.329-4.152-0.823-7.772-1.48-10.857c-0.659-3.085-1.48-5.078-2.468-5.984c-1.399-1.233-3.25-2.116-5.552-2.652
		c-2.305-0.534-4.648-0.74-7.033-0.617c-2.387,0.123-4.607,0.515-6.663,1.172C745.309,322.641,743.787,323.586,742.8,324.819z"/>
</g>
</svg>
