<?xml version="1.0" encoding="utf-8"?>
<!-- Generator: Adobe Illustrator 16.0.0, SVG Export Plug-In . SVG Version: 6.00 Build 0)  -->
<!DOCTYPE svg PUBLIC "-//W3C//DTD SVG 1.1//EN" "http://www.w3.org/Graphics/SVG/1.1/DTD/svg11.dtd">
<svg version="1.1" id="Layer_1" xmlns="http://www.w3.org/2000/svg" xmlns:xlink="http://www.w3.org/1999/xlink" x="0px" y="0px"
	 width="841.89px" height="595.28px" viewBox="0 0 841.89 595.28" enable-background="new 0 0 841.89 595.28" xml:space="preserve">
<g>
	<path fill="#F15A29" d="M60.471,183.658c167.844-51.031,271.512-14.477,294.316,41.239c19.258,47.051-17.367,86.956-94.743,127.905
		c-5.93,3.132-2.719,1.724-8.875,5.506c90.872-11.678,177.439-91.777,144.458-154.152
		C342.089,102.863,139.788,134.828,60.471,183.658L60.471,183.658z"/>
	<path fill="#F15A29" d="M158.642,366.303C0.963,370.164,46.345,232.324,209.126,238.19
		C61.062,262.256,46.06,348.113,158.642,366.303L158.642,366.303z"/>
	<path fill="#F15A29" d="M161.075,313.7c1.733-14.323,15.18-32.118,34.004-51.474c11.919,67.683,65.25,46.977,77.485-15.5
		c16.982,1.847,26.094,16.691,29.847,40.441c-39.668,12.864-66.846,67.151-88.961,138.282
		C210.298,362.672,202.378,308.396,161.075,313.7L161.075,313.7z"/>
	<path fill="#F15A29" d="M250.902,240.938c11.299,5.128,13.495,21.598,4.916,36.792c-8.58,15.189-24.695,23.356-35.994,18.234
		c-11.279-5.118-13.485-21.598-4.906-36.793C223.498,243.987,239.614,235.816,250.902,240.938L250.902,240.938z"/>
</g>
<g>
	<path fill="#F15A29" d="M454.081,174.776c0.127-0.898,0.772-1.671,1.931-2.317c1.159-0.643,2.348-1.028,3.573-1.158
		c1.222-0.127,2.348,0.097,3.38,0.676c1.028,0.579,1.479,1.515,1.352,2.8c-0.13,0.902-0.193,3.573-0.193,8.015
		c0,4.442,0.03,9.85,0.097,16.223c0.063,6.373,0.097,13.262,0.097,20.664c0,7.405-0.033,14.454-0.097,21.147
		c-0.066,6.695-0.13,12.649-0.193,17.863c-0.066,5.215-0.226,8.787-0.482,10.719c-0.387,2.963-0.966,6.246-1.738,9.849
		c-0.772,3.606-2.061,6.953-3.862,10.043c-1.805,3.09-4.346,5.764-7.629,8.015c-3.282,2.254-7.628,3.509-13.035,3.766
		c-4.249,0.257-7.854-0.354-10.815-1.835c-2.963-1.479-5.377-3.442-7.242-5.89c-1.867-2.444-3.315-5.215-4.345-8.305
		c-1.032-3.09-1.771-6.083-2.221-8.98c-0.453-2.896-0.676-5.567-0.676-8.015c0-2.443,0.063-4.248,0.192-5.407
		c0.127-1.802,0.676-2.96,1.642-3.476c0.966-0.514,2.028-0.644,3.187-0.387c1.159,0.26,2.188,0.839,3.09,1.738
		c0.899,0.902,1.353,1.805,1.353,2.703c0,1.032,0.03,3.091,0.097,6.181c0.063,3.09,0.482,6.343,1.255,9.752
		c0.772,3.413,2.058,6.47,3.862,9.174c1.802,2.704,4.505,4.122,8.111,4.249c3.217,0.13,5.953-0.387,8.208-1.545
		c2.251-1.159,4.118-2.801,5.601-4.925c1.479-2.125,2.606-4.602,3.379-7.436c0.772-2.83,1.286-5.92,1.545-9.27
		c1.029-12.746,1.608-24.653,1.738-35.728c0.127-11.072,0.063-20.791-0.192-29.162c-0.26-8.367-0.55-15.16-0.869-20.374
		C453.854,178.929,453.821,175.809,454.081,174.776z"/>
	<path fill="#F15A29" d="M535.577,286.981c-2.833,4.248-6.855,7.338-12.07,9.27c-5.214,1.932-10.592,2.993-16.126,3.187
		c-5.537,0.193-10.718-0.319-15.546-1.545c-4.828-1.222-8.274-2.863-10.332-4.925c-2.317-2.444-4.186-6.759-5.601-12.939
		c-1.418-6.18-2.384-13.229-2.896-21.146c-0.517-7.918-0.646-16.253-0.387-25.01c0.257-8.754,0.836-16.928,1.738-24.526
		c0.899-7.595,2.058-14.161,3.476-19.698c1.416-5.534,3.091-9.077,5.021-10.622c2.704-2.188,6.276-3.926,10.719-5.214
		c4.441-1.286,9.173-2.028,14.194-2.222c5.021-0.192,9.945,0.227,14.773,1.256c4.828,1.032,8.98,2.833,12.457,5.407
		c1.285,0.902,2.541,3.702,3.766,8.4c1.223,4.702,2.284,10.429,3.187,17.188c0.899,6.759,1.545,14.164,1.932,22.209
		c0.386,8.048,0.416,15.966,0.097,23.754c-0.323,7.792-1.159,14.968-2.511,21.533C540.115,277.904,538.151,283.119,535.577,286.981z
		 M490.58,186.558c-1.805,2.19-3.316,5.956-4.539,11.297c-1.225,5.345-2.19,11.461-2.896,18.347
		c-0.709,6.89-1.096,14.132-1.159,21.727c-0.066,7.599,0.127,14.711,0.58,21.34c0.449,6.633,1.188,12.36,2.221,17.188
		c1.028,4.828,2.381,7.888,4.056,9.173c2.188,1.805,5.147,3.061,8.884,3.767c3.732,0.709,7.595,0.839,11.587,0.386
		c3.989-0.449,7.788-1.448,11.395-2.993c3.603-1.545,6.437-3.669,8.497-6.373c1.159-1.545,2.154-4.762,2.993-9.656
		c0.836-4.892,1.479-10.622,1.932-17.188c0.449-6.566,0.676-13.549,0.676-20.954c0-7.402-0.26-14.354-0.772-20.857
		c-0.516-6.5-1.288-12.167-2.317-16.995c-1.032-4.828-2.317-7.948-3.862-9.366c-2.191-1.932-5.088-3.313-8.69-4.152
		c-3.606-0.836-7.275-1.158-11.009-0.966c-3.735,0.193-7.212,0.807-10.428,1.835C494.506,183.147,492.125,184.626,490.58,186.558z"
		/>
	<path fill="#F15A29" d="M595.829,174.197c1.158,0.646,1.994,1.418,2.511,2.317c0.513,0.902,0.706,1.805,0.579,2.704
		c-0.13,0.902-0.549,1.708-1.255,2.414c-0.71,0.709-1.835,1.191-3.38,1.448c-1.545,0.26-3.156,0.26-4.828,0
		c-1.675-0.257-3.413-0.449-5.215-0.579c-1.804-0.127-3.605-0.03-5.407,0.289c-1.805,0.323-3.477,1.129-5.021,2.414
		c-3.22,2.704-5.793,6.663-7.725,11.877c-1.931,5.215-3.283,11.009-4.056,17.382s-1.095,13.102-0.966,20.181
		c0.127,7.082,0.677,13.809,1.642,20.182c0.966,6.373,2.222,12.104,3.767,17.188c1.545,5.088,3.346,8.917,5.407,11.491
		c1.931,2.447,4.216,3.735,6.855,3.862c2.638,0.13,5.278-0.127,7.918-0.772c2.638-0.643,5.021-1.352,7.146-2.124
		c2.125-0.772,3.7-0.836,4.731-0.193c1.932,1.418,3.283,2.834,4.056,4.249c0.772,1.418-0.066,2.896-2.511,4.441
		c-1.288,0.772-3.22,1.611-5.793,2.511c-2.577,0.902-5.474,1.545-8.69,1.932c-3.22,0.386-6.536,0.322-9.946-0.193
		c-3.413-0.513-6.536-1.865-9.366-4.056c-2.834-2.188-5.281-5.987-7.339-11.395c-2.061-5.407-3.669-11.684-4.828-18.829
		c-1.158-7.146-1.868-14.774-2.124-22.885c-0.26-8.111,0-15.933,0.772-23.465s2.058-14.418,3.862-20.664
		c1.802-6.243,4.183-11.104,7.146-14.581c3.347-3.862,6.76-6.47,10.235-7.821c3.477-1.352,6.693-2.028,9.656-2.028
		c2.96,0,5.534,0.356,7.725,1.063C593.575,173.265,595.057,173.812,595.829,174.197z"/>
	<path fill="#F15A29" d="M659.751,174.776c0.127-0.898,0.772-1.671,1.932-2.317c1.158-0.643,2.348-1.028,3.572-1.158
		c1.223-0.127,2.348,0.097,3.38,0.676c1.029,0.579,1.479,1.515,1.353,2.8c-0.13,0.902-0.193,3.573-0.193,8.015
		c0,4.442,0.03,9.85,0.097,16.223c0.063,6.373,0.097,13.262,0.097,20.664c0,7.405-0.033,14.454-0.097,21.147
		c-0.066,6.695-0.13,12.649-0.193,17.863c-0.066,5.215-0.227,8.787-0.482,10.719c-0.387,2.963-1.159,6.246-2.318,9.849
		c-1.158,3.606-2.896,6.953-5.214,10.043s-5.311,5.764-8.98,8.015c-3.669,2.254-8.207,3.509-13.615,3.766
		c-4.895,0.257-9.076-0.579-12.553-2.511c-3.477-1.931-6.373-4.441-8.69-7.531c-2.317-3.091-4.089-6.403-5.311-9.946
		c-1.226-3.539-2.028-6.855-2.414-9.945c-0.387-2.704-0.646-6.823-0.772-12.36c-0.13-5.534-0.227-11.65-0.29-18.347
		c-0.066-6.693-0.033-13.549,0.097-20.567c0.127-7.016,0.256-13.485,0.386-19.409c0.127-5.92,0.257-10.814,0.387-14.677
		c0.127-3.863,0.193-5.921,0.193-6.181c0.126-1.801,0.676-2.96,1.642-3.476c0.965-0.514,1.994-0.643,3.09-0.387
		c1.092,0.26,2.091,0.839,2.993,1.738c0.899,0.902,1.415,1.805,1.545,2.704c0,0.646-0.066,2.93-0.193,6.855
		c-0.13,3.929-0.289,8.82-0.482,14.678c-0.193,5.859-0.42,12.263-0.676,19.215c-0.26,6.953-0.42,13.712-0.483,20.278
		c-0.066,6.566,0,12.522,0.193,17.864c0.193,5.344,0.546,9.303,1.063,11.877c0.386,2.19,1.062,4.508,2.027,6.952
		c0.966,2.447,2.188,4.765,3.67,6.952c1.479,2.191,3.216,4.025,5.214,5.504c1.994,1.482,4.279,2.222,6.855,2.222
		c3.217,0.13,6.181-0.387,8.884-1.545c2.704-1.159,5.021-2.801,6.953-4.925c1.931-2.125,3.476-4.602,4.635-7.436
		c1.158-2.83,1.864-5.92,2.124-9.27c1.029-12.746,1.608-24.653,1.738-35.728c0.127-11.072,0.063-20.791-0.193-29.162
		c-0.26-8.367-0.549-15.16-0.869-20.374C659.525,178.929,659.492,175.809,659.751,174.776z"/>
	<path fill="#F15A29" d="M697.602,189.647c-0.259,2.703-0.646,6.406-1.158,11.104c-0.517,4.701-1.129,11.171-1.835,19.408
		c-0.709,8.241-1.578,18.606-2.607,31.093c-1.031,12.49-2.124,28.003-3.282,46.543c-0.26,0.387-0.902,0.772-1.932,1.159
		c-1.032,0.386-2.157,0.646-3.38,0.772c-1.225,0.13-2.351,0.066-3.38-0.193c-1.031-0.257-1.611-0.772-1.737-1.545
		c-0.26-1.545-0.163-4.022,0.289-7.436c0.45-3.409,0.803-6.919,1.063-10.525c0.127-0.898,0.353-2.993,0.676-6.276
		c0.32-3.283,0.739-7.306,1.255-12.07c0.514-4.762,1.126-10.105,1.835-16.028c0.706-5.921,1.415-11.908,2.124-17.961
		c0.707-6.05,1.383-12.004,2.028-17.864c0.643-5.856,1.222-11.135,1.738-15.836c0.513-4.698,0.966-8.594,1.352-11.684
		c0.387-3.09,0.643-4.955,0.772-5.601c0.127-1.545,0.869-2.638,2.221-3.283c1.353-0.643,2.831-0.933,4.442-0.869
		c1.608,0.066,3.12,0.387,4.538,0.966c1.415,0.579,2.317,1.321,2.704,2.221c0.772,1.932,1.705,4.828,2.8,8.69
		c1.093,3.862,2.348,8.208,3.766,13.036c1.416,4.828,2.831,9.883,4.249,15.16c1.415,5.28,2.801,10.269,4.152,14.967
		c1.352,4.701,2.541,8.854,3.572,12.457c1.029,3.605,1.802,6.18,2.318,7.725c0.386,1.158,0.739,1.835,1.062,2.027
		c0.32,0.193,0.579,0.163,0.772-0.097c0.193-0.256,0.417-0.836,0.676-1.737c0.514-1.416,1.319-3.893,2.414-7.436
		c1.093-3.54,2.348-7.596,3.767-12.167c1.415-4.568,2.863-9.463,4.345-14.677c1.479-5.215,2.927-10.236,4.346-15.064
		c1.415-4.827,2.703-9.173,3.862-13.035c1.158-3.862,2.058-6.823,2.703-8.884c0.644-2.058,1.738-3.507,3.283-4.346
		c1.545-0.836,3.153-1.125,4.828-0.869c1.672,0.26,3.153,0.936,4.442,2.028c1.285,1.096,2.058,2.414,2.317,3.959
		c0,0.516,0.193,2.963,0.579,7.339c0.387,4.378,0.772,9.819,1.159,16.318c0.386,6.503,0.836,13.552,1.352,21.147
		c0.513,7.598,1.029,14.84,1.545,21.727c0.513,6.889,0.899,12.972,1.159,18.25c0.256,5.28,0.449,8.82,0.579,10.621
		c0.127,5.408,0.386,9.916,0.772,13.519c0.386,3.606,0.643,6.247,0.772,7.918c0,0.773-0.482,1.642-1.448,2.607
		s-2.028,1.611-3.187,1.932c-1.159,0.322-2.221,0.097-3.187-0.676s-1.386-2.444-1.256-5.021l-5.986-103.9
		c-0.26-0.256-0.646-0.643-1.159-1.158c-0.516-0.514-0.966,0-1.352,1.545c-0.646,2.317-1.642,5.697-2.993,10.139
		c-1.353,4.441-2.834,9.366-4.442,14.773c-1.611,5.408-3.283,10.945-5.021,16.609c-1.738,5.667-3.38,10.881-4.925,15.643
		c-1.545,4.765-2.964,8.724-4.249,11.877c-1.288,3.156-2.19,4.861-2.704,5.118c-1.158,0.646-2.673,0.902-4.538,0.772
		c-1.868-0.127-3.187-0.706-3.959-1.738c-0.26-0.387-0.902-2.188-1.931-5.407c-1.032-3.217-2.288-7.272-3.767-12.167
		c-1.481-4.892-3.06-10.202-4.731-15.933c-1.675-5.728-3.316-11.265-4.925-16.608c-1.611-5.341-3.06-10.139-4.345-14.388
		c-1.289-4.249-2.317-7.272-3.09-9.077c-0.26-0.256-0.613-0.546-1.063-0.869C698.212,188.072,697.858,188.488,697.602,189.647z"/>
</g>
<g>
	<path fill="#F15A29" d="M511.832,316.923c0.74,0.413,1.274,0.906,1.604,1.48c0.327,0.577,0.451,1.153,0.37,1.728
		c-0.083,0.576-0.352,1.091-0.803,1.542c-0.453,0.453-1.172,0.762-2.159,0.926c-0.986,0.166-2.017,0.166-3.084,0
		c-1.07-0.164-2.181-0.287-3.332-0.37c-1.152-0.081-2.304-0.02-3.454,0.186c-1.153,0.206-2.221,0.721-3.208,1.542
		c-2.058,1.728-3.702,4.257-4.936,7.588c-1.234,3.331-2.098,7.033-2.591,11.104c-0.494,4.072-0.7,8.371-0.617,12.894
		c0.081,4.525,0.432,8.822,1.049,12.894c0.617,4.072,1.419,7.733,2.406,10.981c0.986,3.25,2.138,5.697,3.454,7.342
		c1.234,1.563,2.693,2.387,4.381,2.467c1.685,0.083,3.371-0.08,5.059-0.493c1.685-0.41,3.208-0.863,4.564-1.357
		c1.357-0.493,2.364-0.534,3.023-0.123c1.233,0.906,2.098,1.811,2.591,2.715c0.494,0.905-0.042,1.851-1.604,2.837
		c-0.823,0.494-2.058,1.03-3.702,1.604c-1.646,0.576-3.497,0.987-5.552,1.233c-2.058,0.247-4.176,0.207-6.354-0.123
		c-2.181-0.328-4.176-1.191-5.984-2.591c-1.81-1.397-3.373-3.825-4.688-7.28c-1.316-3.454-2.344-7.464-3.084-12.029
		c-0.741-4.565-1.193-9.439-1.357-14.621c-0.166-5.183,0-10.18,0.493-14.991c0.493-4.813,1.314-9.212,2.468-13.202
		c1.151-3.989,2.672-7.095,4.565-9.315c2.138-2.468,4.318-4.134,6.539-4.997s4.276-1.296,6.169-1.296
		c1.892,0,3.536,0.228,4.936,0.679C510.392,316.327,511.339,316.676,511.832,316.923z"/>
	<path fill="#F15A29" d="M521.332,315.319c0.657-0.575,2.302-0.966,4.936-1.173c2.631-0.204,5.469-0.266,8.514-0.185
		c3.042,0.083,5.817,0.247,8.328,0.493c2.508,0.247,3.968,0.494,4.38,0.74c0.247,0.166,0.493,0.433,0.74,0.803
		s0.432,0.782,0.556,1.233c0.123,0.453,0.123,0.885,0,1.296c-0.124,0.412-0.475,0.699-1.049,0.863
		c-0.577,0.166-1.77,0.289-3.578,0.37c-1.811,0.083-3.744,0.166-5.799,0.247c-2.058,0.083-4.011,0.228-5.861,0.432
		c-1.851,0.206-3.105,0.475-3.763,0.802c-0.413,0.247-0.783,1.502-1.111,3.764c-0.329,2.263-0.616,5.018-0.863,8.267
		c-0.247,3.25-0.412,6.745-0.493,10.487c-0.083,3.744-0.124,7.239-0.124,10.488c0,3.25,0.081,5.983,0.247,8.205
		c0.164,2.221,0.411,3.414,0.74,3.578c0.493,0.246,1.768,0.289,3.825,0.123c2.055-0.164,4.275-0.37,6.662-0.617
		c2.385-0.247,4.585-0.39,6.602-0.432c2.015-0.04,3.187,0.228,3.517,0.802c0.657,0.987,0.863,2.078,0.616,3.27
		c-0.246,1.193-0.822,1.996-1.727,2.406c-0.494,0.166-1.708,0.206-3.641,0.123c-1.934-0.08-3.99-0.143-6.169-0.185
		c-2.181-0.041-4.195,0.021-6.046,0.185c-1.851,0.166-2.899,0.536-3.146,1.111c-0.246,0.659-0.432,1.77-0.555,3.331
		c-0.123,1.563-0.145,3.188-0.062,4.874c0.081,1.687,0.266,3.229,0.555,4.626c0.287,1.4,0.679,2.222,1.173,2.468
		c0.493,0.247,1.891,0.433,4.194,0.556c2.302,0.123,4.77,0.247,7.403,0.37c2.632,0.123,5.059,0.289,7.279,0.493
		c2.222,0.207,3.578,0.475,4.072,0.803c0.493,0.412,0.863,0.925,1.11,1.542s0.39,1.233,0.432,1.851
		c0.041,0.617-0.042,1.193-0.247,1.728c-0.206,0.536-0.515,0.885-0.925,1.049c-0.33,0.083-1.193,0.185-2.591,0.309
		c-1.4,0.123-3.085,0.228-5.06,0.309c-1.974,0.082-4.093,0.145-6.354,0.185c-2.264,0.043-4.401,0.043-6.416,0
		c-2.017-0.04-3.764-0.123-5.244-0.247c-1.48-0.123-2.427-0.308-2.838-0.555c-0.329-0.164-0.638-1.438-0.926-3.825
		c-0.289-2.385-0.555-5.448-0.802-9.192c-0.246-3.741-0.493-7.978-0.74-12.708c-0.247-4.729-0.432-9.563-0.555-14.498
		c-0.124-4.936-0.228-9.787-0.309-14.559c-0.083-4.77-0.083-9.069,0-12.895c0.081-3.824,0.204-6.949,0.37-9.377
		C520.756,317.027,521.002,315.648,521.332,315.319z"/>
	<path fill="#F15A29" d="M558.84,317.293c-0.082-0.74,0.041-1.314,0.371-1.728c0.327-0.41,0.759-0.719,1.295-0.925
		c0.534-0.205,1.11-0.35,1.728-0.432c0.617-0.081,1.253-0.205,1.912-0.371c0.411-0.08,1.46-0.143,3.146-0.185
		c1.686-0.04,3.681,0.166,5.984,0.617c2.302,0.453,4.75,1.255,7.341,2.405c2.592,1.153,4.936,2.819,7.033,4.997
		c2.098,2.181,3.804,5.019,5.12,8.514c1.315,3.497,1.892,7.835,1.728,13.018c-0.246,5.758-1.008,10.529-2.282,14.313
		c-1.276,3.784-2.899,6.869-4.874,9.254c-1.974,2.387-4.176,4.176-6.601,5.367c-2.428,1.193-4.833,2.035-7.218,2.529
		c-0.577,0.166-0.783,0.309-0.617,0.432c0.164,0.123,0.37,0.309,0.617,0.556c1.974,1.81,4.01,3.64,6.107,5.49
		s4.029,3.517,5.799,4.997c1.768,1.48,3.289,2.735,4.565,3.763c1.274,1.03,2.076,1.666,2.405,1.913
		c0.575,0.412,0.843,1.049,0.803,1.912c-0.043,0.864-0.269,1.687-0.679,2.468c-0.413,0.782-0.987,1.399-1.728,1.851
		s-1.48,0.513-2.221,0.186c-0.494-0.166-1.604-1.049-3.332-2.653c-1.727-1.604-3.701-3.517-5.922-5.737s-4.525-4.544-6.91-6.971
		c-2.387-2.426-4.483-4.504-6.292-6.231c-0.413-0.41-0.7-0.574-0.864-0.493c-0.165,0.083-0.289,0.166-0.37,0.247
		c-0.246,0.246-0.412,1.295-0.493,3.146c-0.083,1.852-0.166,3.887-0.247,6.107c-0.083,2.222-0.165,4.319-0.246,6.293
		c-0.083,1.975-0.247,3.208-0.494,3.701c-0.412,1.07-1.152,1.709-2.221,1.913c-1.07,0.206-1.811-0.143-2.221-1.049
		c-0.247-0.494-0.432-1.521-0.556-3.085c-0.123-1.562-0.206-3.905-0.246-7.032c-0.043-3.126-0.021-7.114,0.062-11.969
		c0.081-4.853,0.204-10.815,0.37-17.891c0.081-4.441,0.164-8.822,0.246-13.141c0.081-4.318,0.124-8.286,0.124-11.906
		c0-3.619,0-6.703,0-9.254C558.964,319.68,558.921,318.033,558.84,317.293z M563.899,323.216c0,0.246,0.019,1.461,0.062,3.64
		c0.04,2.181,0.081,4.854,0.123,8.02c0.041,3.168,0.081,6.561,0.124,10.18c0.04,3.62,0.102,6.992,0.185,10.117
		c0.081,3.127,0.143,5.759,0.186,7.896c0.04,2.141,0.062,3.291,0.062,3.455c0,0.247,0.019,0.576,0.062,0.987
		c0.04,0.412,0.123,0.782,0.247,1.11c0.123,0.329,0.349,0.617,0.678,0.863c0.328,0.247,0.821,0.33,1.481,0.247
		c0.41-0.081,1.253-0.186,2.529-0.309c1.274-0.123,2.714-0.432,4.318-0.926c1.604-0.493,3.31-1.273,5.12-2.344
		c1.809-1.068,3.455-2.529,4.936-4.38c1.48-1.852,2.715-4.174,3.701-6.972c0.987-2.795,1.521-6.25,1.604-10.364
		c0-4.029-0.453-7.422-1.357-10.179c-0.906-2.755-2.119-4.977-3.64-6.663c-1.523-1.685-3.168-2.961-4.936-3.825
		c-1.77-0.863-3.497-1.48-5.183-1.851c-1.687-0.37-3.207-0.555-4.564-0.555s-2.283,0-2.776,0c-1.646,0-2.551,0.145-2.715,0.432
		C563.98,322.086,563.899,322.559,563.899,323.216z"/>
	<path fill="#F15A29" d="M599.062,317.293c-0.082-0.74,0.041-1.314,0.371-1.728c0.327-0.41,0.759-0.719,1.295-0.925
		c0.534-0.205,1.11-0.35,1.728-0.432c0.617-0.081,1.253-0.205,1.912-0.371c0.411-0.08,1.46-0.143,3.146-0.185
		c1.686-0.04,3.681,0.166,5.984,0.617c2.302,0.453,4.75,1.255,7.341,2.405c2.592,1.153,4.936,2.819,7.033,4.997
		c2.098,2.181,3.804,5.019,5.12,8.514c1.315,3.497,1.892,7.835,1.728,13.018c-0.246,5.758-1.008,10.529-2.282,14.313
		c-1.276,3.784-2.899,6.869-4.874,9.254c-1.974,2.387-4.176,4.176-6.601,5.367c-2.428,1.193-4.833,2.035-7.218,2.529
		c-0.577,0.166-0.783,0.309-0.617,0.432c0.164,0.123,0.37,0.309,0.617,0.556c1.974,1.81,4.01,3.64,6.107,5.49
		s4.029,3.517,5.799,4.997c1.768,1.48,3.289,2.735,4.565,3.763c1.274,1.03,2.076,1.666,2.405,1.913
		c0.575,0.412,0.843,1.049,0.803,1.912c-0.043,0.864-0.269,1.687-0.679,2.468c-0.413,0.782-0.987,1.399-1.728,1.851
		s-1.48,0.513-2.221,0.186c-0.494-0.166-1.604-1.049-3.332-2.653c-1.727-1.604-3.701-3.517-5.922-5.737s-4.525-4.544-6.91-6.971
		c-2.387-2.426-4.483-4.504-6.292-6.231c-0.413-0.41-0.7-0.574-0.864-0.493c-0.165,0.083-0.289,0.166-0.37,0.247
		c-0.246,0.246-0.412,1.295-0.493,3.146c-0.083,1.852-0.166,3.887-0.247,6.107c-0.083,2.222-0.165,4.319-0.246,6.293
		c-0.083,1.975-0.247,3.208-0.494,3.701c-0.412,1.07-1.152,1.709-2.221,1.913c-1.07,0.206-1.811-0.143-2.221-1.049
		c-0.247-0.494-0.432-1.521-0.556-3.085c-0.123-1.562-0.206-3.905-0.246-7.032c-0.043-3.126-0.021-7.114,0.062-11.969
		c0.081-4.853,0.204-10.815,0.37-17.891c0.081-4.441,0.164-8.822,0.246-13.141c0.081-4.318,0.124-8.286,0.124-11.906
		c0-3.619,0-6.703,0-9.254C599.186,319.68,599.143,318.033,599.062,317.293z M604.121,323.216c0,0.246,0.019,1.461,0.062,3.64
		c0.04,2.181,0.081,4.854,0.123,8.02c0.041,3.168,0.081,6.561,0.124,10.18c0.04,3.62,0.102,6.992,0.185,10.117
		c0.081,3.127,0.143,5.759,0.186,7.896c0.04,2.141,0.062,3.291,0.062,3.455c0,0.247,0.019,0.576,0.062,0.987
		c0.04,0.412,0.123,0.782,0.247,1.11c0.123,0.329,0.349,0.617,0.678,0.863c0.328,0.247,0.821,0.33,1.481,0.247
		c0.41-0.081,1.253-0.186,2.529-0.309c1.274-0.123,2.714-0.432,4.318-0.926c1.604-0.493,3.31-1.273,5.12-2.344
		c1.809-1.068,3.455-2.529,4.936-4.38c1.48-1.852,2.715-4.174,3.701-6.972c0.987-2.795,1.521-6.25,1.604-10.364
		c0-4.029-0.453-7.422-1.357-10.179c-0.906-2.755-2.119-4.977-3.64-6.663c-1.523-1.685-3.168-2.961-4.936-3.825
		c-1.77-0.863-3.497-1.48-5.183-1.851c-1.687-0.37-3.207-0.555-4.564-0.555s-2.283,0-2.776,0c-1.646,0-2.551,0.145-2.715,0.432
		C604.202,322.086,604.121,322.559,604.121,323.216z"/>
	<path fill="#F15A29" d="M664.824,314.579c0.493,0,1.006,0.062,1.542,0.185c0.534,0.123,1.028,0.392,1.48,0.802
		c0.451,0.413,0.843,1.03,1.173,1.852c0.327,0.822,0.493,1.974,0.493,3.454c0,0.74,0.204,2.264,0.617,4.565
		c0.41,2.304,0.944,5.08,1.604,8.328c0.657,3.251,1.419,6.848,2.283,10.796c0.863,3.949,1.746,7.939,2.652,11.969
		c0.904,4.031,1.809,7.958,2.715,11.783c0.904,3.825,1.706,7.239,2.405,10.241c0.698,3.003,1.254,5.471,1.666,7.402
		c0.411,1.934,0.657,3.023,0.74,3.27c0.081,0.494,0.186,1.009,0.309,1.543c0.123,0.536,0.143,1.069,0.062,1.604
		c-0.083,0.536-0.246,1.049-0.493,1.543c-0.247,0.493-0.7,0.863-1.357,1.11c-0.659,0.246-1.276,0.268-1.851,0.062
		c-0.576-0.204-1.11-0.556-1.604-1.049c-0.493-0.493-0.925-1.068-1.295-1.728c-0.37-0.657-0.639-1.314-0.803-1.974
		c-0.082-0.247-0.206-0.884-0.37-1.913c-0.165-1.027-0.37-2.302-0.616-3.824c-0.247-1.521-0.536-3.271-0.864-5.244
		c-0.329-1.975-0.659-3.989-0.986-6.046c0-0.081-0.37-0.123-1.111-0.123c-0.74,0-1.687,0.021-2.837,0.062
		c-1.153,0.042-2.468,0.145-3.949,0.309c-1.48,0.165-2.961,0.289-4.441,0.37c-3.127,0.246-5.943,0.493-8.452,0.74
		c-2.51,0.246-3.806,0.576-3.887,0.987c-0.986,3.948-1.727,6.848-2.221,8.698c-0.493,1.851-0.782,2.859-0.863,3.022
		c-0.247,0.74-0.598,1.749-1.049,3.023c-0.453,1.276-1.009,2.488-1.666,3.64c-0.659,1.152-1.419,2.098-2.282,2.838
		c-0.864,0.74-1.789,0.987-2.776,0.74c-0.659-0.164-1.07-0.637-1.233-1.419c-0.164-0.781-0.143-1.789,0.062-3.022
		c0.204-1.234,0.534-2.592,0.987-4.072c0.451-1.48,1.006-3.002,1.665-4.565c0.328-0.74,1.068-2.795,2.221-6.169
		c1.151-3.372,2.509-7.36,4.072-11.968c1.562-4.606,3.208-9.501,4.936-14.683c1.728-5.183,3.351-10.014,4.873-14.498
		c1.521-4.482,2.776-8.286,3.764-11.413c0.987-3.125,1.562-4.893,1.728-5.306c0.41-1.314,0.78-2.632,1.11-3.948
		C663.301,315.238,663.918,314.579,664.824,314.579z M651.992,367.881c-0.166,0.246,0.041,0.432,0.617,0.555
		c0.574,0.124,1.357,0.166,2.344,0.124c0.987-0.041,2.139-0.103,3.455-0.186c1.314-0.081,2.672-0.204,4.071-0.37
		c2.879-0.247,5.387-0.473,7.526-0.679c2.139-0.204,3.126-0.472,2.962-0.802c-0.74-4.195-1.502-8.328-2.283-12.4
		c-0.782-4.071-1.542-7.711-2.282-10.919s-1.44-5.818-2.098-7.835c-0.659-2.015-1.193-3.023-1.604-3.023
		c-0.494,0-1.215,1.11-2.159,3.332c-0.947,2.221-2.017,5.039-3.208,8.451c-1.193,3.414-2.428,7.218-3.702,11.413
		C654.355,359.737,653.144,363.852,651.992,367.881z"/>
	<path fill="#F15A29" d="M690.363,321.118c-0.166-2.221,0.185-3.659,1.049-4.318c0.863-0.657,1.87-0.987,3.022-0.987
		c1.151,0,2.838,0.268,5.06,0.802c2.221,0.536,5.346,1.749,9.377,3.64c3.782,1.728,6.867,4.238,9.254,7.527
		c2.385,3.29,4.174,6.992,5.367,11.104c1.191,4.113,1.87,8.473,2.035,13.078c0.164,4.607-0.104,9.111-0.802,13.511
		c-0.699,4.401-1.77,8.494-3.208,12.276c-1.44,3.785-3.105,6.952-4.997,9.501c-1.811,2.387-3.948,4.257-6.416,5.614
		c-2.468,1.356-4.895,2.405-7.279,3.146c-2.387,0.741-4.546,1.193-6.478,1.357c-1.934,0.166-3.189,0.207-3.764,0.124
		c-1.233-0.164-2.263-0.473-3.084-0.926c-0.823-0.451-1.276-1.459-1.357-3.022c0-0.328,0.062-2.24,0.185-5.737
		c0.124-3.496,0.267-7.814,0.432-12.956c0.164-5.14,0.35-10.673,0.556-16.595c0.204-5.923,0.39-11.516,0.556-16.78
		c0.163-5.264,0.308-9.788,0.432-13.572C690.425,324.122,690.444,321.858,690.363,321.118z M697.396,324.079
		c-0.247,0.166-0.515,1.872-0.803,5.12c-0.289,3.251-0.535,7.261-0.74,12.03c-0.206,4.771-0.412,9.913-0.616,15.423
		c-0.207,5.512-0.33,10.673-0.37,15.485c-0.043,4.812-0.043,8.884,0,12.215c0.04,3.331,0.185,5.163,0.432,5.49
		c0.327,0.494,1.027,0.74,2.098,0.74c1.067,0,2.344-0.226,3.824-0.679c1.481-0.451,3.023-1.15,4.627-2.097
		c1.604-0.945,3.146-2.117,4.627-3.517c2.385-2.222,4.338-5.491,5.861-9.81c1.521-4.318,2.486-8.965,2.899-13.942
		c0.41-4.976,0.143-9.994-0.802-15.053c-0.947-5.059-2.695-9.52-5.244-13.387c-1.153-1.728-2.551-3.188-4.195-4.381
		c-1.646-1.191-3.27-2.098-4.874-2.714c-1.604-0.617-3.022-0.987-4.256-1.11C698.63,323.771,697.807,323.832,697.396,324.079z"/>
	<path fill="#F15A29" d="M771.549,388.979c-1.811,2.714-4.38,4.688-7.712,5.922c-3.331,1.234-6.767,1.913-10.302,2.036
		c-3.538,0.123-6.849-0.204-9.933-0.987c-3.085-0.78-5.286-1.829-6.602-3.146c-1.48-1.562-2.674-4.318-3.578-8.267
		c-0.906-3.948-1.522-8.451-1.851-13.51c-0.33-5.06-0.412-10.384-0.247-15.979c0.164-5.593,0.534-10.815,1.11-15.67
		c0.575-4.853,1.315-9.048,2.222-12.585c0.904-3.536,1.974-5.799,3.208-6.786c1.728-1.397,4.01-2.509,6.848-3.332
		c2.838-0.821,5.86-1.295,9.068-1.419c3.208-0.123,6.354,0.146,9.439,0.803c3.084,0.659,5.737,1.81,7.958,3.454
		c0.821,0.577,1.623,2.366,2.406,5.367c0.78,3.004,1.459,6.663,2.035,10.981c0.575,4.318,0.987,9.05,1.234,14.189
		c0.246,5.142,0.266,10.2,0.062,15.176c-0.206,4.979-0.74,9.563-1.604,13.758C774.448,383.181,773.193,386.512,771.549,388.979z
		 M742.8,324.819c-1.152,1.399-2.118,3.806-2.899,7.218c-0.782,3.415-1.399,7.322-1.851,11.722
		c-0.453,4.401-0.699,9.028-0.74,13.881c-0.042,4.854,0.081,9.398,0.37,13.634c0.287,4.237,0.76,7.896,1.419,10.981
		c0.657,3.085,1.521,5.039,2.591,5.86c1.398,1.153,3.289,1.955,5.676,2.406c2.385,0.453,4.853,0.536,7.403,0.247
		c2.549-0.287,4.976-0.926,7.279-1.913c2.302-0.986,4.112-2.344,5.43-4.071c0.74-0.987,1.376-3.042,1.912-6.169
		c0.534-3.125,0.944-6.786,1.233-10.981c0.288-4.195,0.433-8.656,0.433-13.387c0-4.729-0.166-9.171-0.494-13.326
		c-0.329-4.152-0.823-7.772-1.48-10.857c-0.659-3.085-1.48-5.078-2.468-5.984c-1.399-1.233-3.25-2.116-5.552-2.652
		c-2.305-0.534-4.648-0.74-7.033-0.617c-2.387,0.123-4.607,0.515-6.663,1.172C745.309,322.641,743.787,323.586,742.8,324.819z"/>
</g>
</svg>
